<?xml version="1.0" encoding="UTF-8" standalone="no"?>
<!-- Created with Inkscape (http://www.inkscape.org/) -->

<svg
   inkscape:version="1.2.2 (b0a84865, 2022-12-01)"
   sodipodi:docname="british-isles.svg"
   id="svg1755"
   version="1.1"
   viewBox="0 0 140 138"
   height="138"
   width="140"
   xmlns:inkscape="http://www.inkscape.org/namespaces/inkscape"
   xmlns:sodipodi="http://sodipodi.sourceforge.net/DTD/sodipodi-0.dtd"
   xmlns="http://www.w3.org/2000/svg"
   xmlns:svg="http://www.w3.org/2000/svg"
   xmlns:rdf="http://www.w3.org/1999/02/22-rdf-syntax-ns#"
   xmlns:cc="http://creativecommons.org/ns#"
   xmlns:dc="http://purl.org/dc/elements/1.1/">
  <defs
     id="defs1749" />
  <sodipodi:namedview
     id="base"
     pagecolor="#ffffff"
     bordercolor="#666666"
     borderopacity="1.0"
     inkscape:pageopacity="0.0"
     inkscape:pageshadow="2"
     inkscape:zoom="5.9291008"
     inkscape:cx="60.211491"
     inkscape:cy="74.378901"
     inkscape:document-units="px"
     inkscape:current-layer="layer1"
     showgrid="true"
     units="px"
     inkscape:window-width="1512"
     inkscape:window-height="916"
     inkscape:window-x="0"
     inkscape:window-y="38"
     inkscape:window-maximized="1"
     inkscape:showpageshadow="0"
     inkscape:pagecheckerboard="0"
     inkscape:deskcolor="#d1d1d1">
    <inkscape:grid
       type="xygrid"
       id="grid948" />
  </sodipodi:namedview>
  <metadata
     id="metadata1752">
    <rdf:RDF>
      <cc:Work
         rdf:about="">
        <dc:format>image/svg+xml</dc:format>
        <dc:type
           rdf:resource="http://purl.org/dc/dcmitype/StillImage" />
        <dc:title />
      </cc:Work>
    </rdf:RDF>
  </metadata>
  <g
     inkscape:label="Layer 1"
     inkscape:groupmode="layer"
     id="layer1">
    <path
       style="opacity:1;fill:#610ec1;fill-opacity:1;stroke:#000000;stroke-width:0.3;stroke-miterlimit:4;stroke-dasharray:none"
       d="m 83,87 -12,1 -5,5 4,1 2,3 5,-3 1,-2 4,1 3,-3 z"
       id="242"
       inkscape:connector-curvature="0"
       sodipodi:nodetypes="cccccccccc">
      <title
         id="title30344">Gwynedd (#242), Wales (ENG)</title>
    </path>
    <path
       style="opacity:1;fill:#6882ac;stroke:#000000;stroke-width:0.3;stroke-miterlimit:4;stroke-dasharray:none"
       d="m 47,73 -5,2 v 4 l -5,-2 -3,2 -3,7 v 4 h 6 l 5,3 -3,7 1,2 2,-1 1,1 5,-1 -1,-1 5,-9 -3,-5 2,-4 -3,-6 2,1 3,-3 z"
       id="4120"
       inkscape:connector-curvature="0"
       sodipodi:nodetypes="cccccccccccccccccccccc">
      <title
         id="title30404">Leinster (#4120), Leinster (LEI)</title>
    </path>
    <path
       style="opacity:1;fill:#ead6a5;stroke:#000000;stroke-width:0.3;stroke-miterlimit:4;stroke-dasharray:none"
       d="m 39,56 -3,6 -2,-4 -8,5 2,1 -5,2 5,3 h 3 l 5,2 1,6 5,2 v -4 l 5,-2 6,1 3,-2 -1,-4 3,3 -2,-5 -3,1 2,-2 -5,-6 -11,2 z"
       id="4121"
       inkscape:connector-curvature="0"
       sodipodi:nodetypes="ccccccccccccccccccccccc">
      <title
         id="title30389">Ulster (#4121), Ulster (ULS)</title>
    </path>
    <path
       style="opacity:1;fill:#c7af0c;stroke:#000000;stroke-width:0.3;stroke-miterlimit:4;stroke-dasharray:none"
       d="m 76,34 -10,4 -8,-1 v 3 l 2,1 h -3 l -3,17 3,-4 3,-9 v 4 l 2,2 24,-1 4,-2 h -6 l -7,-1 6,-3 3,1 1,-2 -4,-2 -3,1 2,-2 z"
       id="248"
       inkscape:connector-curvature="0"
       sodipodi:nodetypes="cccccccccccccccccccccc">
      <title
         id="title30383">Lothian (#248), Scotland (SCO)</title>
    </path>
    <path
       style="opacity:1;fill:#c11a0e;stroke:#000000;stroke-width:0.3;stroke-miterlimit:4;stroke-dasharray:none"
       d="m 94,69 h -2 l -2,4 5,10 h 9 l 3,1 4,-2 v -1 l 3,1 h 2 l -4,-4 2,-3 -3,-1 -7,-6 h -6 z"
       id="245"
       inkscape:connector-curvature="0"
       sodipodi:nodetypes="cccccccccccccccc">
      <title
         id="title30368">York (#245), England (ENG)</title>
    </path>
    <path
       style="opacity:1;fill:#c11a0e;stroke:#000000;stroke-width:0.30000001;stroke-miterlimit:4;stroke-dasharray:none"
       d="m 71,115 -2,4 h -2 v 3 l -4,2 -4,6 h -3 l -1,2 3,-1 2,2 11,-6 3,2 8,-6 -7,-7 z"
       id="4373"
       inkscape:connector-curvature="0"
       sodipodi:nodetypes="ccccccccccccccc">
      <title
         id="title30338">Cornwall (#4373), England (ENG)</title>
    </path>
    <path
       sodipodi:nodetypes="cccccccccccccccccccc"
       style="opacity:1;fill:#006968;stroke:#000000;stroke-width:0.3;stroke-miterlimit:4;stroke-dasharray:none;fill-opacity:1"
       inkscape:connector-curvature="0"
       d="m 60,13 2,-5 4,2 1,-2 5,1 8,-2 2,4 -11,9 3,1 -4,5 -13,3 v -3 h -4 l 2,-2 -1,-4 2,1 v -2 l 4,-1 -2,-5 z"
       class="SCO city highlands"
       id="4110">
      <title
         id="title1861">Sutherland (#4110), Isles (SCO)</title>
    </path>
    <path
       style="opacity:1;fill:#006968;stroke:#000000;stroke-width:0.3;stroke-miterlimit:4;stroke-dasharray:none"
       d="m 48,9 -6,4 -2,2 v 3 l 1,1 h 4 2 l 1,-2 -1,-2 2,-3 z m 1,12 -5,4 8,5 v 2 l 3,-3 -5,-2 z m -10,0 -3,2 4,1 z m -2,4 -1,3 3,2 1,-4 z m 10,10 -2,1 v 1 h 3 z m -4,3 h -1 l -2,2 h 4 z m 6,0 1,3 1,1 4,-1 z m -2,13 h 2 v 2 l 5,-8 z"
       id="253"
       inkscape:connector-curvature="0"
       sodipodi:nodetypes="ccccccccccccccccccccccccccccccccccccccccccccccc">
      <title
         id="title30407">Hebrides (#253), Isles (LOI)</title>
    </path>
    <path
       id="251"
       class="SCO city hills"
       d="m 78,22 16,-1 2,2 -4,11 -10,6 -6,-6 5,-3 -8,-7 z"
       inkscape:connector-curvature="0"
       style="opacity:1;fill:#f1870f;stroke:#000000;stroke-width:0.3;stroke-miterlimit:4;stroke-dasharray:none;fill-opacity:1"
       sodipodi:nodetypes="ccccccccc">
      <title
         id="title2051">Aberdeen (#251), Aberdeen (ABE)</title>
    </path>
    <path
       sodipodi:nodetypes="ccccccccccccc"
       style="opacity:1;fill:#c7af0c;stroke:#000000;stroke-width:0.3;stroke-miterlimit:4;stroke-dasharray:none"
       inkscape:connector-curvature="0"
       d="m 73,24 8,7 -5,3 -10,4 -8,-1 -2,3 -4,-3 1,-2 2,-1 h -3 l 5,-5 13,-3 z"
       class="SCO city highlands"
       id="252">
      <title
         id="title2066">Inverness (#252), Scotland (SCO)</title>
    </path>
    <path
       style="opacity:1;fill:#c7af0c;stroke:#000000;stroke-width:0.3;stroke-miterlimit:4;stroke-dasharray:none"
       d="m 62,51 4,4 -6,9 2,1 2,-1 4,3 v -4 l 2,2 6,-1 1,-2 3,1 13,-13 -3,-2 -4,2 z"
       id="249"
       inkscape:connector-curvature="0"
       sodipodi:nodetypes="ccccccccccccccc">
      <title
         id="title30377">Ayrshire (#249), Scotland (SCO)</title>
    </path>
    <path
       style="opacity:1;fill:#0ec190;stroke:#000000;stroke-width:0.3;stroke-miterlimit:4;stroke-dasharray:none;fill-opacity:1"
       d="m 93,50 -13,13 -4,6 3,2 -1,4 12,-2 2,-4 h 2 l 4,-1 h 6 L 98,54 95,53 Z"
       id="246"
       inkscape:connector-curvature="0"
       sodipodi:nodetypes="ccccccccccccc">
      <title
         id="title30371">Northumberland (#246), Northumberland (NOR)</title>
    </path>
    <path
       style="opacity:1;fill:#bf9bcb;stroke:#000000;stroke-width:0.3;stroke-miterlimit:4;stroke-dasharray:none"
       d="m 31,69 h -3 l -4,2 1,2 -5,-1 -1,2 -7,-3 -1,7 h 3 l -6,6 4,1 v 2 l 3,-1 -1,2 7,-1 7,-3 3,2 3,-7 3,-2 -1,-6 z"
       id="4119"
       inkscape:connector-curvature="0"
       sodipodi:nodetypes="ccccccccccccccccccccc">
      <title
         id="title30401">Connaught (#4119), Connaught (CON)</title>
    </path>
    <path
       id="4365"
       class="ENG city coastline"
       d="m 72,73 -5,5 -4,-3 4,-6 z"
       inkscape:connector-curvature="0"
       style="opacity:1;fill:#006968;stroke:#000000;stroke-width:0.30000001;stroke-miterlimit:4;stroke-dasharray:none;fill-opacity:1"
       sodipodi:nodetypes="ccccc">
      <title
         id="title2749">Mann (#4365), Isles (ENG)</title>
    </path>
    <path
       style="opacity:1;fill:#c11a0e;stroke:#000000;stroke-width:0.3;stroke-miterlimit:4;stroke-dasharray:none"
       d="m 84,74 -2,5 1,3 v 2 l -1,2 1,1 2,3 h 3 l 2,1 3,-3 h 2 l -2,-2 2,-3 -5,-10 z"
       id="244"
       inkscape:connector-curvature="0"
       sodipodi:nodetypes="ccccccccccccccc">
      <title
         id="title30365">Lancashire (#244), England (ENG)</title>
    </path>
    <path
       style="opacity:1;fill:#c11a0e;stroke:#000000;stroke-width:0.30000001;stroke-miterlimit:4;stroke-dasharray:none"
       d="m 111,82 -4,2 -3,-1 h -9 l -2,3 2,2 7,9 v 5 l 6,-1 2,-6 6,-1 -1,-2 3,-3 z"
       id="243"
       inkscape:connector-curvature="0"
       sodipodi:nodetypes="cccccccccccccc">
      <title
         id="title30362">Lincolnshire (#243), England (ENG)</title>
    </path>
    <path
       style="opacity:1;fill:#68898c;stroke:#000000;stroke-width:0.3;stroke-miterlimit:4;stroke-dasharray:none"
       d="m 21,87 -5,3 1,2 -6,4 h 11 l -15,6 5,1 -6,5 h 4 l 5,-2 -6,4 5,-1 -2,2 h 4 l 11,-3 1,-2 1,2 3,-2 h 3 l 1,-3 4,-1 -1,-2 3,-7 -5,-3 h -6 v -4 l -3,-2 z"
       id="375"
       inkscape:connector-curvature="0"
       sodipodi:nodetypes="cccccccccccccccccccccccccccc">
      <title
         id="title30395">Munster (#375), Munster (MNS)</title>
    </path>
    <path
       style="opacity:1;fill:#c11a0e;stroke:#000000;stroke-width:0.3;stroke-miterlimit:4;stroke-dasharray:none"
       d="m 90,91 -2,-1 h -3 l -3,3 1,3 -2,1 5,13 h 2 l -2,2 5,1 5,-3 2,-6 4,-2 v -5 l -7,-9 h -2 z"
       id="4372"
       inkscape:connector-curvature="0"
       sodipodi:nodetypes="ccccccccccccccccc">
      <title
         id="title30350">Coventry (#4372), England (ENG)</title>
    </path>
    <path
       style="opacity:1;fill:#c11a0e;stroke:#000000;stroke-width:0.30000001;stroke-miterlimit:4;stroke-dasharray:none"
       d="m 118,94 h -2 l -6,1 -2,6 3,4 5,-1 v 2 l -1,2 5,3 h 4 v -3 h 3 l 1,-3 3,-2 2,-9 h -3 l -8,-4 z"
       id="1860"
       inkscape:connector-curvature="0"
       sodipodi:nodetypes="cccccccccccccccccc">
      <title
         id="title30359">Norfolk (#1860), England (ENG)</title>
    </path>
    <path
       style="opacity:1;fill:#0ec143;fill-opacity:1;stroke:#000000;stroke-width:0.3;stroke-miterlimit:4;stroke-dasharray:none"
       d="m 77,94 -5,3 -6,6 -7,2 2,2 1,4 3,-2 h 5 l -1,2 5,-1 2,3 5,1 1,-2 4,-2 -5,-13 2,-1 -1,-3 -4,-1 z"
       id="4366"
       inkscape:connector-curvature="0"
       sodipodi:nodetypes="ccccccccccccccccccc">
      <title
         id="title30347">Montgomery (#4366), Marcher (ENG)</title>
    </path>
    <path
       style="opacity:1;fill:#c11a0e;stroke:#000000;stroke-width:0.30000001;stroke-miterlimit:4;stroke-dasharray:none"
       d="m 108,101 -6,1 -4,2 -2,6 -5,3 4,10 9,-2 2,-4 v -4 l 3,-1 2,-7 z"
       id="237"
       inkscape:connector-curvature="0"
       sodipodi:nodetypes="cccccccccccc">
      <title
         id="title30356">Oxford (#237), England (ENG)</title>
    </path>
    <path
       style="opacity:1;fill:#c11a0e;stroke:#000000;stroke-width:0.30000001;stroke-miterlimit:4;stroke-dasharray:none"
       d="m 111,105 -2,7 -3,1 v 4 l -2,4 1,2 2,-1 h 11 l 3,-2 7,-2 2,-2 -11,-3 1,-2 -5,-3 1,-2 v -2 z"
       id="236"
       inkscape:connector-curvature="0"
       sodipodi:nodetypes="ccccccccccccccccc">
      <title
         id="title30353">London (#236), England (ENG)</title>
    </path>
    <path
       style="opacity:1;fill:#c11a0e;stroke:#000000;stroke-width:0.3;stroke-miterlimit:4;stroke-dasharray:none"
       d="m 86,112 -4,5 -7,-1 7,7 3,-1 9,3 1,-2 -4,-10 z"
       id="4130"
       inkscape:connector-curvature="0"
       sodipodi:nodetypes="ccccccccc">
      <title
         id="title30341">Somerset (#4130), England (ENG)</title>
    </path>
  </g>
</svg>
